<svg xmlns="http://www.w3.org/2000/svg" width="1200" height="680" viewBox="0 0 1200 680">
  <rect width="1200" height="680" rx="16" fill="#0d1117"/>
  <rect x="24" y="24" width="1152" height="632" rx="8" fill="#161b22"
        stroke="#8b949e" stroke-width="2"/>

  <g fill="#e6edf3" font-family="ui-monospace, SFMono-Regular, Menlo, monospace"
     font-size="18">
    <text x="600" y="61" text-anchor="middle" font-weight="bold">rdap-tui</text>
    <path d="M24 78H1176" stroke="#8b949e"/>

    <text x="48" y="112">Query</text>
    <rect x="132" y="88" width="790" height="36" rx="4" fill="#0d1117" stroke="#58a6ff"/>
    <text x="148" y="112">192.0.2.1</text>
    <rect x="944" y="88" width="118" height="36" rx="4" fill="#238636"/>
    <text x="1003" y="112" text-anchor="middle" font-weight="bold">Search</text>

    <text x="48" y="155">Status</text>
    <circle cx="143" cy="149" r="6" fill="#3fb950"/>
    <text x="160" y="155" fill="#3fb950">Request completed</text>
    <text x="48" y="188" fill="#8b949e" font-size="15">
      192.0.2.1 · HTTP 200 · https://rdap.example/ip/192.0.2.1
    </text>

    <path d="M24 207H1176" stroke="#8b949e"/>
    <text x="48" y="240">View</text>
    <rect x="112" y="216" width="118" height="34" rx="4" fill="#1f6feb"/>
    <text x="171" y="239" text-anchor="middle" font-weight="bold">Overview</text>
    <text x="265" y="239" fill="#8b949e">Contacts</text>
    <text x="370" y="239" fill="#8b949e">Network</text>
    <text x="438" y="239" fill="#8b949e">Notices</text>
    <text x="530" y="239" fill="#8b949e">JSON</text>

    <g font-size="16">
      <text x="52" y="279" font-weight="bold">IP network</text>
      <text x="76" y="307">Name: TEST-NET-1</text>
      <text x="76" y="335">Handle: NET-192-0-2-0-1</text>
      <text x="52" y="375" font-weight="bold">Status</text>
      <text x="76" y="403">- active</text>
      <text x="52" y="499" font-weight="bold">Events</text>
      <text x="76" y="527">registration: 1990-12-31T23:59:59Z</text>
      <text x="52" y="595" font-weight="bold">Registration</text>
    </g>

    <path d="M24 611H1176" stroke="#8b949e"/>
    <text x="48" y="638" fill="#8b949e" font-size="14">
      Enter: search · 1-5: views · Tab: focus · ↑/↓/PgUp/PgDn: scroll · Ctrl+C/Esc: quit
    </text>
  </g>
</svg>
